# xmcd CD database file
#
# Track frame offsets:
#	150
#	13575
#	24427
#	38797
#
# Disc length: 735 seconds
#
# Revision: 0
# Processed by: cddbd v1.5.2PL0 Copyright (c) Steve Scherf et al.
# Submitted via: CDex 1.70beta2
#
DISCID=2302dd04
DTITLE=Boo Hewerdine and Darden Smith - All I Want (Is Everything)
DYEAR=1989
DGENRE=Country
TTITLE0=All I Want (Is Everything)
TTITLE1=My Doreen
TTITLE2=South by Southwest
TTITLE3=Tell me Why
EXTD=YEAR: 1989
EXTT0=
EXTT1=
EXTT2=
EXTT3=
PLAYORDER=
